<?xml version="1.0" encoding="UTF-8" standalone="no"?>
<!DOCTYPE svg PUBLIC "-//W3C//DTD SVG 1.1//EN"
 "http://www.w3.org/Graphics/SVG/1.1/DTD/svg11.dtd">
<!-- Generated by graphviz version 2.26.3 (20100126.1600)
 -->
<!-- Title: G Pages: 1 -->
<svg width="186pt" height="422pt"
 viewBox="0.00 0.00 186.00 422.00" xmlns="http://www.w3.org/2000/svg" xmlns:xlink="http://www.w3.org/1999/xlink">
<g id="graph1" class="graph" transform="scale(1 1) rotate(0) translate(4 418)">
<title>G</title>
<polygon fill="white" stroke="white" points="-4,5 -4,-418 183,-418 183,5 -4,5"/>
<g id="graph2" class="cluster"><title>cluster_global</title>
<polyline fill="none" stroke="gray" points="20,-8 158,-8 "/>
<path fill="none" stroke="gray" d="M158,-8C164,-8 170,-14 170,-20"/>
<polyline fill="none" stroke="gray" points="170,-20 170,-394 "/>
<path fill="none" stroke="gray" d="M170,-394C170,-400 164,-406 158,-406"/>
<polyline fill="none" stroke="gray" points="158,-406 20,-406 "/>
<path fill="none" stroke="gray" d="M20,-406C14,-406 8,-400 8,-394"/>
<polyline fill="none" stroke="gray" points="8,-394 8,-20 "/>
<path fill="none" stroke="gray" d="M8,-20C8,-14 14,-8 20,-8"/>
<text text-anchor="middle" x="89" y="-392.1" font-family="Times Roman,serif" font-size="11.00" fill="gray">global</text>
</g>
<!-- \\Group -->
<g id="node2" class="node"><title>\\Group</title>
<a xlink:href="class.group.html" xlink:title="Group" target="_parent">
<polygon fill="none" stroke="black" points="116,-376 62,-376 62,-340 116,-340 116,-376"/>
<text text-anchor="middle" x="89" y="-355.1" font-family="Courier,monospace" font-size="11.00">Group</text>
</a>
</g>
<!-- \\UserHooks -->
<g id="node3" class="node"><title>\\UserHooks</title>
<a xlink:href="class.user.html" xlink:title="UserHooks" target="_parent">
<polygon fill="none" stroke="black" points="127,-322 51,-322 51,-286 127,-286 127,-322"/>
<text text-anchor="middle" x="89" y="-301.1" font-family="Courier,monospace" font-size="11.00">UserHooks</text>
</a>
</g>
<!-- \\User -->
<g id="node4" class="node"><title>\\User</title>
<a xlink:href="class.user.html" xlink:title="User" target="_parent">
<polygon fill="none" stroke="black" points="116,-268 62,-268 62,-232 116,-232 116,-268"/>
<text text-anchor="middle" x="89" y="-247.1" font-family="Courier,monospace" font-size="11.00">User</text>
</a>
</g>
<!-- \\UserLibrarySettings -->
<g id="node5" class="node"><title>\\UserLibrarySettings</title>
<a xlink:href="settings.html" xlink:title="UserLibrarySettings" target="_parent">
<polygon fill="none" stroke="black" points="161,-214 17,-214 17,-178 161,-178 161,-214"/>
<text text-anchor="middle" x="89" y="-193.1" font-family="Courier,monospace" font-size="11.00">UserLibrarySettings</text>
</a>
</g>
<!-- \\DatabaseConnection -->
<g id="node6" class="node"><title>\\DatabaseConnection</title>
<a xlink:href="class.databaseconnection.html" xlink:title="DatabaseConnection" target="_parent">
<polygon fill="none" stroke="black" points="158,-160 20,-160 20,-124 158,-124 158,-160"/>
<text text-anchor="middle" x="89" y="-139.1" font-family="Courier,monospace" font-size="11.00">DatabaseConnection</text>
</a>
</g>
<!-- \\Cache -->
<g id="node7" class="node"><title>\\Cache</title>
<a xlink:href="class.databaseconnection.html" xlink:title="Cache" target="_parent">
<polygon fill="none" stroke="black" points="116,-106 62,-106 62,-70 116,-70 116,-106"/>
<text text-anchor="middle" x="89" y="-85.1" font-family="Courier,monospace" font-size="11.00">Cache</text>
</a>
</g>
<!-- \\DatabaseSettings -->
<g id="node8" class="node"><title>\\DatabaseSettings</title>
<a xlink:href="class.databaseconnection.html" xlink:title="DatabaseSettings" target="_parent">
<polygon fill="none" stroke="black" points="151,-52 27,-52 27,-16 151,-16 151,-52"/>
<text text-anchor="middle" x="89" y="-31.1" font-family="Courier,monospace" font-size="11.00">DatabaseSettings</text>
</a>
</g>
</g>
</svg>
